<svg xmlns="http://www.w3.org/2000/svg" xmlns:xlink="http://www.w3.org/1999/xlink" version="1.1" x="0px" y="0px" viewBox="0 0 100 125" enable-background="new 0 0 100 100" xml:space="preserve"><g display="none"><rect x="-60.877" y="-877.172" display="inline" fill="#000000" width="1370.931" height="1263.231"/></g><g display="none" opacity="0.31"><g display="inline"><polygon points="68.801,13.321 68.801,32.131 86.98,32.131 82.026,23.396 87.034,13.321   "/><path d="M27.183,36.041c5.396,0,9.785-4.39,9.785-9.786c0-5.395-4.389-9.785-9.785-9.785s-9.786,4.39-9.786,9.785    C17.397,31.651,21.787,36.041,27.183,36.041z"/><path d="M70.068,5H50.631v34.713H23.183c-5.634,0-10.218,4.583-10.218,10.218v17.699c0,2.46,2.002,4.462,4.462,4.462h1.073v18.447    c0,2.46,2.001,4.462,4.461,4.462h8.439c2.46,0,4.462-2.002,4.462-4.462v-41.24h14.767v23.246h6.314V46.587    c1.502-1.578,2.346-3.621,2.387-5.802l0.02-1.072h-2.407V23.811h8.699V10.164h4.424V5z"/></g></g><g><path d="M64.747,14.216c-4.623-1.609-9.583-2.494-14.747-2.494s-10.124,0.886-14.747,2.494C17.663,20.336,5,37.073,5,56.721   C5,69.008,9.96,80.15,17.97,88.279c4.667-8.347,13.513-13.697,23.326-13.697h17.429c9.658,0,18.372,5.201,23.089,13.338   c0.07,0.121,0.148,0.236,0.216,0.359C90.04,80.15,95,69.008,95,56.721c0-12.402-5.043-23.648-13.186-31.796   C77.056,20.165,71.234,16.473,64.747,14.216z M50.003,67.421c-9.313,0-16.889-7.576-16.889-16.887   c0-9.313,7.576-16.888,16.889-16.888c9.313,0,16.889,7.576,16.889,16.888C66.891,59.845,59.315,67.421,50.003,67.421z"/></g><text x="0" y="115" fill="#000000" font-size="5px" font-weight="bold" font-family="'Helvetica Neue', Helvetica, Arial-Unicode, Arial, Sans-serif"></text><text x="0" y="120" fill="#000000" font-size="5px" font-weight="bold" font-family="'Helvetica Neue', Helvetica, Arial-Unicode, Arial, Sans-serif"></text></svg>